<mxfile host="Electron" modified="2024-03-21T12:54:34.589Z" agent="Mozilla/5.0 (Windows NT 10.0; Win64; x64) AppleWebKit/537.36 (KHTML, like Gecko) draw.io/24.0.4 Chrome/120.0.6099.109 Electron/28.1.0 Safari/537.36" etag="rJr_9WEIy6U0ZMA70Uwg" version="24.0.4" type="device">
  <diagram name="Page-1" id="c4acf3e9-155e-7222-9cf6-157b1a14988f">
    <mxGraphModel dx="1050" dy="621" grid="1" gridSize="10" guides="1" tooltips="1" connect="1" arrows="1" fold="1" page="1" pageScale="1" pageWidth="850" pageHeight="1100" background="none" math="0" shadow="0">
      <root>
        <mxCell id="0" />
        <mxCell id="1" parent="0" />
        <mxCell id="17acba5748e5396b-1" value="frame" style="shape=umlFrame;whiteSpace=wrap;html=1;rounded=0;shadow=0;comic=0;labelBackgroundColor=none;strokeWidth=1;fontFamily=Verdana;fontSize=10;align=center;fillColor=#F2CC8F;strokeColor=#E07A5F;fontColor=#393C56;" parent="1" vertex="1">
          <mxGeometry x="15" y="20" width="820" height="1060" as="geometry" />
        </mxCell>
        <mxCell id="suM3u6XLBvXDkKkqeEj0-7" value="" style="group" vertex="1" connectable="0" parent="1">
          <mxGeometry x="50" y="80" width="180" height="90" as="geometry" />
        </mxCell>
        <mxCell id="suM3u6XLBvXDkKkqeEj0-4" value="&lt;div style=&quot;box-sizing:border-box;width:100%;background:#e4e4e4;padding:2px;&quot;&gt;&lt;b&gt;category&lt;/b&gt;&lt;/div&gt;" style="verticalAlign=top;align=left;overflow=fill;html=1;whiteSpace=wrap;strokeColor=#E07A5F;fontColor=#393C56;fillColor=#F2CC8F;" vertex="1" parent="suM3u6XLBvXDkKkqeEj0-7">
          <mxGeometry width="180" height="90" as="geometry" />
        </mxCell>
        <mxCell id="suM3u6XLBvXDkKkqeEj0-6" value="&lt;b&gt;id: INT (PK)&lt;/b&gt;&lt;div&gt;&lt;b&gt;name: VARCHAR(255)&lt;/b&gt;&lt;/div&gt;" style="text;strokeColor=none;align=left;fillColor=none;html=1;verticalAlign=middle;whiteSpace=wrap;rounded=0;fontColor=#393C56;" vertex="1" parent="suM3u6XLBvXDkKkqeEj0-7">
          <mxGeometry x="10" y="40" width="140" height="30" as="geometry" />
        </mxCell>
        <mxCell id="suM3u6XLBvXDkKkqeEj0-11" value="" style="group" vertex="1" connectable="0" parent="1">
          <mxGeometry x="40" y="240" width="180" height="90" as="geometry" />
        </mxCell>
        <mxCell id="suM3u6XLBvXDkKkqeEj0-12" value="&lt;div style=&quot;box-sizing:border-box;width:100%;background:#e4e4e4;padding:2px;&quot;&gt;&lt;b&gt;formula&lt;/b&gt;&lt;/div&gt;" style="verticalAlign=top;align=left;overflow=fill;html=1;whiteSpace=wrap;strokeColor=#E07A5F;fontColor=#393C56;fillColor=#F2CC8F;" vertex="1" parent="suM3u6XLBvXDkKkqeEj0-11">
          <mxGeometry width="180" height="90" as="geometry" />
        </mxCell>
        <mxCell id="suM3u6XLBvXDkKkqeEj0-13" value="&lt;b&gt;id: INT (PK)&lt;/b&gt;&lt;div&gt;&lt;b&gt;name: VARCHAR(255)&lt;/b&gt;&lt;/div&gt;" style="text;strokeColor=none;align=left;fillColor=none;html=1;verticalAlign=middle;whiteSpace=wrap;rounded=0;fontColor=#393C56;" vertex="1" parent="suM3u6XLBvXDkKkqeEj0-11">
          <mxGeometry x="10" y="40" width="140" height="30" as="geometry" />
        </mxCell>
        <mxCell id="suM3u6XLBvXDkKkqeEj0-17" value="" style="group" vertex="1" connectable="0" parent="1">
          <mxGeometry x="620" y="240" width="180" height="190" as="geometry" />
        </mxCell>
        <mxCell id="suM3u6XLBvXDkKkqeEj0-18" value="&lt;div style=&quot;box-sizing:border-box;width:100%;background:#e4e4e4;padding:2px;&quot;&gt;&lt;b&gt;user&lt;/b&gt;&lt;/div&gt;" style="verticalAlign=top;align=left;overflow=fill;html=1;whiteSpace=wrap;strokeColor=#E07A5F;fontColor=#393C56;fillColor=#F2CC8F;" vertex="1" parent="suM3u6XLBvXDkKkqeEj0-17">
          <mxGeometry width="180" height="190" as="geometry" />
        </mxCell>
        <mxCell id="suM3u6XLBvXDkKkqeEj0-19" value="&lt;b&gt;id: INT (PK)&lt;/b&gt;&lt;div&gt;&lt;b&gt;username: VARCHAR(255)&lt;/b&gt;&lt;/div&gt;&lt;div&gt;&lt;b&gt;password: VARCHAR(255)&lt;/b&gt;&lt;/div&gt;&lt;div&gt;&lt;b&gt;group_id: INT (fk)&lt;/b&gt;&lt;/div&gt;" style="text;strokeColor=none;align=left;fillColor=none;html=1;verticalAlign=middle;whiteSpace=wrap;rounded=0;fontColor=#393C56;" vertex="1" parent="suM3u6XLBvXDkKkqeEj0-17">
          <mxGeometry x="5" y="30" width="170" height="63.33" as="geometry" />
        </mxCell>
        <mxCell id="suM3u6XLBvXDkKkqeEj0-14" value="" style="group" vertex="1" connectable="0" parent="1">
          <mxGeometry x="630" y="80" width="180" height="90" as="geometry" />
        </mxCell>
        <mxCell id="suM3u6XLBvXDkKkqeEj0-15" value="&lt;div style=&quot;box-sizing:border-box;width:100%;background:#e4e4e4;padding:2px;&quot;&gt;&lt;b&gt;group&lt;/b&gt;&lt;/div&gt;" style="verticalAlign=top;align=left;overflow=fill;html=1;whiteSpace=wrap;strokeColor=#E07A5F;fontColor=#393C56;fillColor=#F2CC8F;" vertex="1" parent="suM3u6XLBvXDkKkqeEj0-14">
          <mxGeometry width="180" height="90" as="geometry" />
        </mxCell>
        <mxCell id="suM3u6XLBvXDkKkqeEj0-16" value="&lt;b&gt;id: INT (PK)&lt;/b&gt;&lt;div&gt;&lt;b&gt;name: VARCHAR(255)&lt;/b&gt;&lt;/div&gt;" style="text;strokeColor=none;align=left;fillColor=none;html=1;verticalAlign=middle;whiteSpace=wrap;rounded=0;fontColor=#393C56;" vertex="1" parent="suM3u6XLBvXDkKkqeEj0-14">
          <mxGeometry x="10" y="40" width="140" height="30" as="geometry" />
        </mxCell>
        <mxCell id="suM3u6XLBvXDkKkqeEj0-21" value="" style="group" vertex="1" connectable="0" parent="1">
          <mxGeometry x="330" y="140" width="180" height="170" as="geometry" />
        </mxCell>
        <mxCell id="suM3u6XLBvXDkKkqeEj0-22" value="&lt;div style=&quot;box-sizing:border-box;width:100%;background:#e4e4e4;padding:2px;&quot;&gt;&lt;b&gt;travel&lt;/b&gt;&lt;/div&gt;" style="verticalAlign=top;align=left;overflow=fill;html=1;whiteSpace=wrap;strokeColor=#E07A5F;fontColor=#393C56;fillColor=#F2CC8F;" vertex="1" parent="suM3u6XLBvXDkKkqeEj0-21">
          <mxGeometry width="180" height="170" as="geometry" />
        </mxCell>
        <mxCell id="suM3u6XLBvXDkKkqeEj0-20" value="&lt;b&gt;id_travel: INT (PK)&lt;/b&gt;&lt;div&gt;&lt;b&gt;titel: VARCHAR(255)&lt;/b&gt;&lt;/div&gt;&lt;div&gt;&lt;b&gt;image_url: VARCHAR(255)&lt;/b&gt;&lt;/div&gt;&lt;div&gt;&lt;b&gt;description: TEXT&lt;/b&gt;&lt;/div&gt;&lt;div&gt;&lt;b&gt;date_start: DATE&lt;/b&gt;&lt;/div&gt;&lt;div&gt;&lt;b&gt;date_end: DATE&lt;/b&gt;&lt;/div&gt;&lt;div&gt;&lt;b&gt;price: DOUBLE&lt;/b&gt;&lt;/div&gt;&lt;div&gt;&lt;b&gt;category_id: INT (FK)&lt;/b&gt;&lt;/div&gt;&lt;div&gt;&lt;b&gt;formula_id INT (fk)&lt;/b&gt;&lt;/div&gt;" style="text;strokeColor=none;align=left;fillColor=none;html=1;verticalAlign=middle;whiteSpace=wrap;rounded=0;fontColor=#393C56;" vertex="1" parent="suM3u6XLBvXDkKkqeEj0-21">
          <mxGeometry x="10" y="35" width="180" height="100" as="geometry" />
        </mxCell>
        <mxCell id="suM3u6XLBvXDkKkqeEj0-25" style="edgeStyle=orthogonalEdgeStyle;rounded=0;orthogonalLoop=1;jettySize=auto;html=1;entryX=0.558;entryY=0.013;entryDx=0;entryDy=0;entryPerimeter=0;strokeColor=#E07A5F;fontColor=#393C56;fillColor=#F2CC8F;" edge="1" parent="1" source="suM3u6XLBvXDkKkqeEj0-15" target="suM3u6XLBvXDkKkqeEj0-18">
          <mxGeometry relative="1" as="geometry" />
        </mxCell>
        <mxCell id="suM3u6XLBvXDkKkqeEj0-27" style="edgeStyle=orthogonalEdgeStyle;rounded=0;orthogonalLoop=1;jettySize=auto;html=1;entryX=0.444;entryY=0.987;entryDx=0;entryDy=0;entryPerimeter=0;strokeColor=#E07A5F;fontColor=#393C56;fillColor=#F2CC8F;" edge="1" parent="1" source="suM3u6XLBvXDkKkqeEj0-18" target="suM3u6XLBvXDkKkqeEj0-15">
          <mxGeometry relative="1" as="geometry" />
        </mxCell>
        <mxCell id="suM3u6XLBvXDkKkqeEj0-28" style="edgeStyle=orthogonalEdgeStyle;rounded=0;orthogonalLoop=1;jettySize=auto;html=1;entryX=0.991;entryY=0.88;entryDx=0;entryDy=0;entryPerimeter=0;strokeColor=#E07A5F;fontColor=#393C56;fillColor=#F2CC8F;" edge="1" parent="1" source="suM3u6XLBvXDkKkqeEj0-18" target="suM3u6XLBvXDkKkqeEj0-22">
          <mxGeometry relative="1" as="geometry" />
        </mxCell>
        <mxCell id="suM3u6XLBvXDkKkqeEj0-29" style="edgeStyle=orthogonalEdgeStyle;rounded=0;orthogonalLoop=1;jettySize=auto;html=1;entryX=0.009;entryY=0.64;entryDx=0;entryDy=0;entryPerimeter=0;strokeColor=#E07A5F;fontColor=#393C56;fillColor=#F2CC8F;" edge="1" parent="1" source="suM3u6XLBvXDkKkqeEj0-12" target="suM3u6XLBvXDkKkqeEj0-22">
          <mxGeometry relative="1" as="geometry" />
        </mxCell>
        <mxCell id="suM3u6XLBvXDkKkqeEj0-30" style="edgeStyle=orthogonalEdgeStyle;rounded=0;orthogonalLoop=1;jettySize=auto;html=1;entryX=-0.013;entryY=0.329;entryDx=0;entryDy=0;entryPerimeter=0;strokeColor=#E07A5F;fontColor=#393C56;fillColor=#F2CC8F;" edge="1" parent="1" source="suM3u6XLBvXDkKkqeEj0-4" target="suM3u6XLBvXDkKkqeEj0-22">
          <mxGeometry relative="1" as="geometry" />
        </mxCell>
      </root>
    </mxGraphModel>
  </diagram>
</mxfile>
